<?xml version="1.0" encoding="UTF-8"?>
<svg version="1.1" viewBox="0 0 2048 1024" width="1280" height="1280" xmlns="http://www.w3.org/2000/svg">
<path transform="translate(0)" d="m0 0h2048v1024h-2048z" fill="#FCFCFC"/>
<path transform="translate(1734,238)" d="m0 0h15l12 2 13 5 12 8 11 10 6 9 3 9 1 15-1 14v15l4 33 1 13v25l14 10 13 11 5 10 5 19 4 31 6 68v30l-3 18-5 15-7 12-8 8 1 20 4 27 1 6v9l-1 5 12 3 17 6 9 8 1 3 1 42-4 6-15 8-16 4-21 4-28 3-26 1v21h30l29 3 28 5 28 7 16 5 24 8 11 5 13 5 16 8 25 13 27 16 24 16 7 5v124h-681l2-2 20-9 16-9-9-3-11-3-1-1v-9l3-6 35 8h6l18-11 17-11 19-11 4-2-27-1-14-1v5l-10-2-48-14 2-6 14-29 16-33 11-23 5-11-7-5-1-2v-7l4-7-78-9-4-1 2-16 8-40 9-38h17l38 3 32 4 29 6 17 6 9 5 6 6v2h2l3 11 1 8v24l-7 93v11l15-11 17-11 19-11 23-12 9-4 5-3 11-4h2l-16-35-13-33-8-26-2-11v-10l3-15 6-14 3-2 5 13 10 16 6 10 2 7v8l-3 9-9 19-2 12 12-5 9-7h2l2-6 5-10v-15l-5-12-12-21-3-8v-14l4-11 1-2-7 2h-9l-8-4-4-5-12-1-3-3 1-5 7-8 17-13 21-16 8-7 4-9 4-14 6-4 6-7 5-5 3-4v-3h-5l10-10 1-2-8 4-8 7-2 3h-2l2-4 5-6 9-6h3v-3l-10 4-11 10-1-2 6-7 9-6 7-1v-3l-7-1-10 5-10 10-1-3 10-10 7-4 5-2h-6l-14 8h-30l-9-2-12-6-6-7v-2h-2l-2 5-6 4-6 2-12 13-3 3h-2l-10-30 5-5 9-10 8-16 13-30 8-16 3-3v6 1l4-4h2l-1 9 3-3h3l1 6 4-1v7l-5 15-3 10v7l8 7 6 2h18l1-10 4-11 7-13 2 4 4 9 9 8 12 5 9 2h16l12-3 14-7 12-9 9-2 6-4 4-6v-11l-3-4-7-1-5 5-6 3-10 1-10-3-10-9-7-10-5-10-3 7v2l3 4v3l-6-3h-6l-3 1-2-1 1-4 4-3-5-6-2-5-1-8-8 6-3 1h-10l-3 14-1 11-7-1-4-5v-14l5-12 7-8 14-11 13-10 14-8 9-3 7-1h9l10 3 10 7 6 6v2l3-1 2-5v-14l9-3 12-5 11-8 12-12 3-5 8-1 7-6 5-13-2-9-2-3h-8l-13 8h-9l-8-4-10-9-8-11v6l-2 2-9-1-10-6-10-10-4-8-1-10-9 9-6 11-2 6v16l1 5v7l-4-4-9-16-2-5-1-10 2-10 6-11 10-10 14-9 17-8 13-4z" fill="#FA9920"/>
<path transform="translate(1362,322)" d="m0 0h18l11 4 13 8 4 1 23 1 6 4 5 5 4 6 2 8 11 7 6 9 4 12v7l-5 6h-2l-2 4-3 2-6-1h-3l-5 3h-6l-2-2-4 1h-7l-4-4-7 8-7 6-8 4 27 8h2l4-8 8-7 2-1h6l5 3 3 9-1 9-3 8h2l2-5 3-9 1-6h2l-1 10-5 10v4l3 4-2 3-8 3-4 8h-2l-1 4-5 8h-2l-1 4-3 4h-2l6 9 2 5v8l-3 9-11 11-1 7 4 10v10l4 2 7 7 8 7 4 1 23-13 23-12 23-13 13-6v3l2 1 9 27v3l8-7 10-11 9-3 4-6h2l6 8 14 7 7 1h30l14-8h6l1 2-10 4-10 9-2 4 11-11 9-4 5 1 2 1v3l-9 3-10 8-1 3 10-9 6-3h4v3l-8 4-6 5-5 7 5-5 8-7 4-2h3l-2 5-7 6 4 1-1 5-6 5-6 8-6 5h-2l-2 12-4 10-8 8-19 14-17 13-9 8-2 4 1 4 1 1 12 1 5 6 7 3h9l7-1-3 9-1 4v14l4 10 12 21 4 10v15l-8 16-13 9-7 3h-3v-8l5-13 7-14 1-5v-8l-4-11-13-20-6-14-5 10-4 13-1 7v10l4 18 10 30 11 26 13 29v2l-13 5-24 12-19 10-21 13-16 11-9 6v-12l7-93v-24l-3-16v-3h-2l-7-8-13-6-20-6-28-5-34-4-46-3-2 12-11 50-6 32 22 2 60 7v3l-3 5v7l4 4 4 3-12 25-16 33-11 23-10 21 10 2 48 14v-5h14l28 1-3 3-18 10-25 16-13 8-11-1-30-7-2 5v9l22 6-5 4-21 11-14 6h-156l5-10 10-11 14-8 6-2h5v-155h-11l-33-2-38-7-18-7-8-6-2-4v-43l5-6 14-7 17-5 13-3h3l-1-2v-7l4-13 8-16 13-23 7-18 13-50 8-23 13-29 12-22 16-26 7-13-7-1-17-4-6-5-2-6 1-11-6-9-9-8-5-8v-9l4-7 19-10 4-8v-27l3-8 9-9 11-6 4-1 14-1 6-3 4-5 5-13 10-13 11-7 11-4z" fill="#F1E0D5"/>
<path transform="translate(0)" d="m0 0h171l27 18 20 12 16 9 27 14 24 11 11 4 11 5 15 5 10 4 19 6 23 6 15 4 29 6 34 5 33 3h35l25-3 19-4 15-4 21-7 12-5 21-10 6-4 2 1-10 8-10 9-8 7-14 12-16 12-16 11-21 13-26 14-7 4-10 4-10 5-17 6-21 8-18 5-32 8-30 5-30 3h-37l-32-3-33-6-30-8-20-6-7-3-13-5-25-11-23-11-23-13-20-12-22-15-16-12-11-9-14-12-17-13-2-2z" fill="#FA9920"/>
<path transform="translate(1368,715)" d="m0 0h17l38 3 32 4 29 6 17 6 9 5 6 6v2h2l3 11 1 8v24l-8 105-13 11-11 9-15 14-9 7 19-9 21-9 6-1-1 23-1 4 27-9 22-5 21-3 13-1h46l23 1-11-20 1-3 28 4 3 1 6 21-5-20 2-1 37 8 26 7 3 1 2 14v8l9 2 28 10 30 13 30 15 24 14 19 12 14 10v1h-541l2-2 20-9 16-9-9-3-11-3-1-1v-9l3-6 35 8h6l18-11 17-11 19-11 4-2-27-1-14-1v5l-10-2-48-14 2-6 14-29 16-33 11-23 5-11-7-5-1-2v-7l4-7-78-9-4-1 2-16 8-40z" fill="#1B86C7"/>
<path transform="translate(1688,382)" d="m0 0h9l10 3 10 7 8 9 5 7 7 15h9l10-3 6-4 6-8 2-6 1-13 2 2 1 5v16l-3 15-7 21-1 2-1 14-1 36v44l4 11 1 7h21l19 3 17 5 12 6 1 2-4-1-15-6-15-4-15-2-20-1 3 20v16l-3 16-4 8-6 5-11 3h-9l-2-1-1 6-4 8v9l4-10 3-2-1 5-3 7 1 5 4-12 2-3h2l-2 5-2 10 2 1 1-9 3-6 2-1-1 5-2 5v6l3-2 4-10 7-5 3 34 4 19 5 10 3 13 5 8 6 5-5 4-14 8-19 8-7 3 1 5-3 5-3 1 4 32v8l-12 2h-5l-1-3-5-53 2 32 2 24-7 2-36 8-10 3-5-1-12-45v-4l4-3v-9l-8 4h-7l-7-3-8 16-3 5-2 9 8-2 11-7 10-8 2 3 11 42-1 5-30 10-10 4-3-1-16-36-11-27-8-25-3-15v-10l3-15 6-14 3-2 5 13 10 16 6 10 2 7v8l-3 9-9 19-2 12 12-5 9-7h2l2-6 5-10v-15l-5-12-12-21-3-8v-14l4-11 1-2-7 2h-9l-8-4-4-5-12-1-3-3 1-5 7-8 17-13 21-16 8-7 4-9 4-14 6-4 6-7 5-5 3-4v-3h-5l10-10 1-2-8 4-8 7-2 3h-2l2-4 5-6 9-6h3v-3l-10 4-11 10-1-2 6-7 9-6 7-1v-3l-7-1-10 5-10 10-1-3 10-10 7-4 5-2h-6l-14 8h-30l-9-2-12-6-6-7v-2h-2l-2 5-6 4-6 2-12 13-3 3h-2l-10-30 5-5 9-10 8-16 13-30 8-16 3-3v6 1l4-4h2l-1 9 3-3h3l1 6 4-1v7l-5 15-3 10v7l8 7 6 2h18l1-10 4-11 7-13 2 4 4 9 9 8 12 5 9 2h16l12-3 14-7 12-9 9-2 6-4 4-6v-11l-3-4-7-1-5 5-6 3-10 1-10-3-10-9-7-10-5-10-3 7v2l3 4v3l-6-3h-6l-3 1-2-1 1-4 4-3-5-6-2-5-1-8-8 6-3 1h-10l-3 14-1 11-7-1-4-5v-14l5-12 7-8 14-11 13-10 14-8 9-3z" fill="#F99820"/>
<path transform="translate(1734,238)" d="m0 0h15l12 2 13 5 12 8 11 10 6 9 3 9 1 15-1 14v15l4 33 1 13v25l14 10 13 11 5 10 5 19 4 31 6 68v30l-3 18-5 15-7 12-8 8 1 20 4 27 1 6v9l-1 5 2 1h-3l-2 5-5 5-1 10-6 10-10 6-13 3h-12l-8-3-8-7-4-9-3-12-4-8-4-19-2-26-1-7-5 4-5 11-3 2-1-1 1-9 2-6-4 9-1 6-3-1 2-10 3-5-3 3-4 13-3-2 1-7 3-6-1-1-5 11h-1v-10l5-11 1-3h11l13-4 5-6 3-9 2-12v-16l-2-15v-5h20l19 3 17 5 10 5 1-1-14-6-19-5-14-2-21-1-6-18v-44l1-36 1-14 7-19 3-12 1-7v-16l-1-5-1 11-4 9-7 8-9 4-5 1h-9l-10-19-3-5 3-3 1-3v-14l9-3 12-5 11-8 12-12 3-5 8-1 7-6 5-13-2-9-2-3h-8l-13 8h-9l-8-4-10-9-8-11v6l-2 2-9-1-10-6-10-10-4-8-1-10-9 9-6 11-2 6v16l1 5v7l-4-4-9-16-2-5-1-10 2-10 6-11 10-10 14-9 17-8 13-4z" fill="#F2E0D5"/>
<path transform="translate(1572,533)" d="m0 0h2l6 8 14 7 7 1h30l14-8h6l1 2-10 4-10 9-2 4 11-11 9-4 5 1 2 1v3l-9 3-10 8-1 3 10-9 6-3h4v3l-8 4-6 5-5 7 5-5 8-7 4-2h3l-2 5-7 6 4 1-1 5-6 5-6 8-6 5h-2l-2 12-4 10-8 8-19 14-17 13-9 8-2 4 1 4 1 1 12 1 5 6 7 3h9l7-1-3 9-1 4v14l4 10 12 21 4 10v15l-8 16-13 9-7 3h-3v-8l5-13 7-14 1-5v-8l-4-11-13-20-6-14-5 10-4 13-1 7v10l4 18 10 30 11 26 13 29v2l-13 5-24 12-19 10-21 13-16 11-9 6v-12l7-93v-24l-3-16v-3h-2l-7-8 2-1-7-10-8-7-14-8-24-8-25-5-25-3-33-2 6-27 2-11 4-14 2-1 16 4 16 2h16l13-5 19-10 30-20 18-13 21-16 8-6-1-5-3-9 1-5 10-10 6-7 9-3z" fill="#FCFCFC"/>
<path transform="translate(27,817)" d="m0 0h19l18 2 25 6 20 8 15 8 12 8 11 9 10 9 7 7 11 14 9 14 8 15 8 21 5 22 2 18v22l-3 22-1 2h-203v-203l15-3z" fill="#FCFCFC"/>
<path transform="translate(210)" d="m0 0h504l-4 3-23 13-19 12-25 16-20 12-25 12-25 9-25 6-27 4-20 1h-29l-31-2-30-4-26-5-31-8-33-11-29-12-29-14-24-13-23-14-6-4z" fill="#1C87C8"/>
<path transform="translate(1368,715)" d="m0 0h17l38 3 32 4 29 6 17 6 9 5 6 6v2h2l3 11 1 8v24l-8 105-13 11-11 9-15 14-9 7 19-9 21-9 6-1-1 23-1 5-20 9h-31l-14-1v5l-10-2-48-14 2-6 14-29 16-33 11-23 5-11-7-5-1-2v-7l4-7-78-9-4-1 2-16 8-40z" fill="#1B324A"/>
<path transform="translate(1378,813)" d="m0 0h9l44 5v3l-3 5v7l4 4 4 3-12 25-16 33-11 23-10 21 10 2 48 14v-5h14l28 1-3 3-18 10-25 16-13 8-11-1-30-7-2 5v9l22 6-5 4-21 11-14 6h-58l-6-10-9-10-10-7-8-3-6-1v-152l19 7 16 8 19 10 9 3h10l1-1v-16l1-16 2-7 19-6 10-7z" fill="#FCFCFC"/>
<path transform="translate(1362,322)" d="m0 0h18l11 4 13 8 4 1 23 1 6 4 5 5 4 6 2 8 11 7 6 9 4 12v7l-5 6h-2l-2 4-3 2-6-1h-3l-5 3h-6l-2-2-4 1h-7l-4-4-7 8-7 6-8 4 27 8h2l4-8 8-7 2-1h6l5 3 3 9-1 9-4 8-4 5-8 4-6-1-4-4-2-5v-9l-37-11-13-4-4-7-3-3-7-1-5 3-4 5-3 8v8l4 11-3 4v8l3 10v12l-4 5-2 1h-8l-9-1-6 3-7 8-8 11-8 5h-9l-24-6-6-5-2-6 1-11-6-9-9-8-5-8v-9l4-7 19-10 4-8v-27l3-8 9-9 11-6 4-1 14-1 6-3 4-5 5-13 10-13 11-7 11-4z" fill="#1A3149"/>
<path transform="translate(1736,642)" d="m0 0 1 3-4 9 1 5 4-12 2-3h2l-2 5-2 10 2 1 1-9 3-6 2-1-1 5-2 5v6l3-2 4-10 7-5 3 34 4 19 5 10 3 13 5 8 6 5-5 4-14 8-19 8-7 3 1 5-3 5-3 1 4 32v8l-12 2h-5l-1-3-5-53 2 32 2 24-7 2-36 8-10 3-5-1-12-45v-4l4-3v-10l-4-42v-11l3-12 6-8 4-3 9 3 6 1h9l15-3 15-6 5-4 5-11 3-10 2 2 4-10z" fill="#1B324A"/>
<path transform="translate(27,817)" d="m0 0h19l18 2 25 6 20 8 15 8 12 8 11 9 10 9 7 7 11 14 9 14 8 15 8 21 5 22 2 18v22l-3 22-1 2h-39l2-11 2-16v-16l-2-17-5-19-7-17-9-15-7-9-9-10-12-11-14-9-16-8-18-6-15-3-11-1h-13l-18 2-12 2v-39l15-3z" fill="#FCFCFC"/>
<path transform="translate(1651,824)" d="m0 0h7l3 3v74l-2 2h-8l3 7 9 17v1l-24-1h-46l-21 2-23 4-22 6-15 5h-2l2-27-25 10-20 10-2-1 14-12 13-12 11-9 17-13 27-18 19-11 23-12 9-4 5-3 39-15z" fill="#FE8A1D"/>
<path transform="translate(1187,749)" d="m0 0h6l4 8 3 7 6 7 16 11 9 5-3-12 1-4 6 15 6 19 4 17 6 10 8 5 10 4 1 151 9 2 8 4 9 7 9 10 4 9h-98l5-10 10-11 14-8 6-2h5v-155h-11l-33-2-38-7-18-7-8-6-2-4v-43l5-6 14-7 17-5z" fill="#FA9920"/>
<path transform="translate(1734,238)" d="m0 0h15l12 2 13 5 12 8 11 10 6 9 3 9 1 15-1 14v15l4 33 1 13v14l-1 9-2 1-16-8-15-2-7-1-4-20h-2l-8 7-15 8-7 2h-6l1-2 14-4 11-6 12-11 7-8 3-3 9-2 6-7 4-11-2-9-2-3h-8l-13 8h-9l-8-4-10-9-8-11v6l-2 2-9-1-10-6-10-10-4-8-1-10-9 9-6 11-2 6v16l1 5v7l-4-4-9-16-2-5-1-10 2-10 6-11 10-10 14-9 17-8 13-4z" fill="#1A334B"/>
<path transform="translate(1688,382)" d="m0 0h9l10 3 10 7 8 9 5 7 8 17 5 15 5 24 6 30v15l-3 10-3 3-9-10-10-7-9-4-5-1h-9l-13 6-11 3h-17l-5-1h-11l-25 3h-7l2-13 8-16 3-4 3 10 8 9 12 6 12 3h16l12-3 14-7 12-9 9-2 6-4 4-6v-11l-3-4-7-1-5 5-6 3-10 1-10-3-10-9-7-10-5-10-3 7v2l3 4v3l-6-3h-6l-3 1-2-1 1-4 4-3-5-6-2-5-1-8-8 6-3 1h-10l-3 14-1 11-7-1-4-5v-14l5-12 7-8 14-11 13-10 14-8 9-3z" fill="#1A324A"/>
<path transform="translate(639,75)" d="m0 0 2 1-10 8-10 9-8 7-14 12-16 12-16 11-21 13-26 14-7 4-10 4-10 5-17 6-21 8-13 4h-6l4-3 1-3v-75l-1-3h-6v-1h10l28 3 13 1h35l25-3 19-4 15-4 21-7 12-5 21-10z" fill="#FE8A1D"/>
<path transform="translate(1362,405)" d="m0 0 7 1 7 8v3l9 2 38 11 4 2v9l3 7 5 2 6-1 6-4 4-5v2h2l2-5 3-9 1-6h2l-1 10-5 10v4l3 4-2 3-8 3-4 8h-2l-1 4-5 8h-2l-1 4-3 4h-2l6 9 2 5v8l-3 9-11 11-1 7 4 10v8l-4-2-13-12-14-11-21-14-22-12-14-7v-2l9 3 26 14 15 10-1-4-10-15-8-10-10-8-6-3 1-3v-12l-3-10v-8l3-5-4-10v-8l4-10 6-6z" fill="#EAA083"/>
<path transform="translate(30,855)" d="m0 0h13l17 2 19 5 17 7 15 9 9 7 10 9 7 7 9 12 9 15 7 17 5 19 2 17v16l-3 20-2 7h-32l2-10 3-16v-20l-4-20-6-15-8-14-12-14-12-10-16-9-13-5-13-3-8-1h-17l-18 3-10 3v-33l12-3z" fill="#FCFCFC"/>
<path transform="translate(28,886)" d="m0 0h17l17 3 15 5 15 8 10 8 10 9 10 13 8 15 5 15 3 16v20l-4 20-2 6h-43l6-13 4-16v-13l-3-14-5-12-10-13-10-8-12-6-10-3-7-1h-11l-15 3-14 7h-2v-42l10-4z" fill="#FCFCFC"/>
<path transform="translate(1839,696)" d="m0 0 9 1 21 7 9 8 1 3 1 42-4 6-15 8-16 4-21 4-28 3-40 2h-10l-11-1-1-1-1-7v-9l4-3 1-5-1-4 25-10 15-8 4-3 9 1h12l13-3 10-6 5-9 1-10 5-5z" fill="#F59621"/>
<path transform="translate(1699,271)" d="m0 0h1l1 11 4 8 9 9 10 6 9 1 1-1v-7l4 4 8 10 7 6 8 4h9l13-8h8l4 6 1 7-5 13-8 7-8 1-4 6-13 13-11 7-13 5-5 1h-14l-12-4-10-7-8-10-3-7-2-9 1-10 1-7v-7l-1-5v-16l4-10 6-9z" fill="#FDC8A7"/>
<path transform="translate(1655,422)" d="m0 0h1l2 12 6 9-5 3-1 3 11-1 6 4-3-6-2-3 3-3 1-5 2 1 6 12 7 9 8 7 10 3 10-1 8-4 3-4 7 1 4 5v11l-4 6-5 4-5 2-8 2-10 8-14 7-12 3h-16l-15-4-10-6-8-9-2-6v-38l3-14 2-1h9l8-4z" fill="#FEC8A7"/>
<path transform="translate(1614,674)" d="m0 0h2l-2 5-3 9v14l4 10 11 19 5 12v14l-11 23-2 7-1 3 8-2 11-7 10-8 2 3 11 42-1 5-30 10-10 4-3-1-16-36-11-27-8-25-3-15v-10l3-15 6-14 3-2 5 13 10 16 6 10 2 7v8l-3 9-9 19-2 12 12-5 9-7h2l2-6 5-10v-15l-5-12-12-21-3-8v-14l4-11z" fill="#1A334B"/>
<path transform="translate(1580,901)" d="m0 0h43l28 3 12 24-24-1h-46l-21 2-23 4-22 6-15 5h-2l2-28 15-5 25-6 19-3z" fill="#FCFBFB"/>
<path transform="translate(1770,931)" d="m0 0 11 3 11 4 27 11 13 6 23 11 23 12 28 17 27 18 14 10v1h-39l-11-8-22-14-21-12-23-12-21-10-7-10-7-8-10-7-7-3-9-3z" fill="#FCFBF9"/>
<path transform="translate(1576,450)" d="m0 0h1v6 1l4-4h2l-1 9 3-3h3l1 6 4-1v7l-5 15-5 18-9 26v3h-2l-2 5-6 4-6 2-12 13-3 3h-2l-10-30 5-5 9-10 8-16 13-30 8-16z" fill="#E19C83"/>
<path transform="translate(1626,670)" d="m0 0h7l13 5 14 7-6 8-4 9-1 6v11l3 33v10l-8 4h-7l-7-4v-16l-5-12-9-16-5-9-1-4v-14l4-11 5-5z" fill="#F2E0D5"/>
<path transform="translate(30,959)" d="m0 0h13l9 4 8 7 4 8 1 3v14l-4 9-6 7-9 5-4 1h-12l-10-4-8-8-4-8-1-4v-10l4-11 5-6 10-6z" fill="#FCFCFC"/>
<path transform="translate(434,108)" d="m0 0h10l17 2-1 4 10-1v2l5 1v60l-4 7-19 7-10 3h-6l4-3 1-3v-75l-1-3h-6z" fill="#FE8A1E"/>
<path transform="translate(1388,480)" d="m0 0 7 1 15 6 4 1h8l4-2 4 1 5 8 1 3v8l-3 9-11 11-1 7 4 10v8l-4-2-13-12-14-11-21-14-22-12-14-7v-2l9 3 26 14 15 10-1-4-12-18 9-12z" fill="#1A324B"/>
<path transform="translate(1645,541)" d="m0 0h6l1 2-10 4-10 9-2 4 11-11 9-4 5 1 2 1v3l-9 3-10 8-1 3 10-9 6-3h4v3l-8 4-6 5-5 7 5-5 8-7 4-2h3l-2 5-7 6 4 1-1 5-6 5-6 8-6 5h-2l-2 12-4 10-7 6-8-7-7-10-3-7-1-11 3-14 7-17 1-2-6-1v-1l26-1z" fill="#F2DFD4"/>
<path transform="translate(1651,824)" d="m0 0h7l3 3v74l-2 2-14 1-10-1 1-4-6 1-1-1-1-61-3-2-7 1 3-2 24-9z" fill="#FE8A1D"/>
<path transform="translate(1187,749)" d="m0 0h6l4 8 3 7 6 7 16 11 9 5-3-12 1-4 6 15 5 16-1 3-3-7-33-3-25-5-18-6-11-7-7-8 3-5 10-6 18-6z" fill="#FA9920"/>
<path transform="translate(1402,946)" d="m0 0 16 4 27 8v-5h14l28 1-3 3-18 10-25 16-13 8-11-1-29-7-1-2z" fill="#EDA286"/>
<path transform="translate(1381,663)" d="m0 0h1l-1 10-5 21 43 3 30 5 19 5 16 6 13 8 10 9 4 6v2l-5-2-14-6-24-6-32-5-30-3-35-2-2-1 2-11 8-33z" fill="#1A354F"/>
<path transform="translate(1706,499)" d="m0 0 4 1 4 5 3 7v12l-6 9-9 8-7 3h-7l-6-3-6-7-2-3-6 5-2 1h-7l-8-3-4-4v-9l6-10 4-4 8 1h17l14-4z" fill="#F2DFD3"/>
<path transform="translate(1589,673)" d="m0 0 8 3h9l7-1-3 9-1 4v14l4 10 12 21 4 10v15l-8 16-13 9-7 3h-3v-8l5-13 7-14 1-5v-8l-4-11-13-20-5-12-1-3v-16z" fill="#F2E0D5"/>
<path transform="translate(1765,362)" d="m0 0 2 2 5 25-1 13-4 9-7 8-9 4-5 1h-9l-10-19-3-5 3-3 1-3 1-13 12-3 15-8z" fill="#FEC9A8"/>
<path transform="translate(1382,664)" d="m0 0 1 2 11 3 35 11v4l12 5 14 7 7 6 1 4-19-4-25-4-44-3z" fill="#F2E0D5"/>
<path transform="translate(1685,909)" d="m0 0 34 7 30 8 3 1 2 14v8l-40-10-24-5-6-21z" fill="#1A3148"/>
<path transform="translate(1626,670)" d="m0 0h7l13 5 14 7-6 8-4 9-1 4-19 3h-14l-5-1-1-3v-14l4-11 5-5z" fill="#FEC9A8"/>
<path transform="translate(27,817)" d="m0 0h19l18 2 25 6 20 8 15 8 12 8 11 9 10 9 7 7 11 14 9 14 8 15 8 21 5 22 2 18v22l-3 22-1 2-4-1 3-19v-30l-3-21-6-21-9-21-10-17-11-14-12-13-14-12-15-10-15-8-21-8-20-5-16-2h-27l-23 3v-4l15-3z" fill="#0D7ABF"/>
<path transform="translate(1645,541)" d="m0 0h6l1 2-10 4-10 9-2 4 11-11 9-4 5 1 2 1v3l-9 3-10 8-1 3 10-9 6-3h4v3l-8 4-6 5-5 7 5-5 8-7 4-2h3l-2 5-7 6 4 1-1 5-6 5-6 8-6 5h-2l-1 2v-2h-7l-5-5-2-6v-11l3-8 9-10 4-4z" fill="#F9C5A6"/>
<path transform="translate(1639,828)" d="m0 0h3l3 4 1 68-10 1v-2l-6 1-1-1-1-61-3-2-7 1 3-2z" fill="#FB981F"/>
<path transform="translate(458,112)" d="m0 0h2v2l10-1v2l5 1v60l-1 3-16 5z" fill="#FB9920"/>
<path transform="translate(22,852)" d="m0 0h29l17 3 16 5 16 7 16 10 11 9 14 14 10 14 9 16 7 18 4 18 1 7v31l-4 20h-4l2-11 2-16v-16l-2-17-5-19-7-17-9-15-7-9-9-10-12-11-14-9-16-8-18-6-15-3-11-1h-13l-18 2-12 2v-4l14-3z" fill="#0D7ABF"/>
<path transform="translate(1710,559)" d="m0 0 12 1 3 1 8 14 2 9-3 6-3 2h-5l-4-4h-6l-12 6-4-2v-3l5-3 8-6 3-2-10 5-7 6-5-1 1-5h2l1-3 8-4 7-2-8 1-8 5-2 2h-4l-1-4 7-6h2v-2l5-2 8-1-3-1-8 2-4 3h-2l1-4 6-5 4-2z" fill="#FEC7A7"/>
<path transform="translate(28,886)" d="m0 0h17l17 3 15 5 15 8 10 8 10 9 10 13 8 15 5 15 3 16v20l-4 20-2 6h-4l2-9 3-14v-25l-4-18-6-15-9-14-9-10-7-7-15-10-14-6-15-4-6-1h-23l-16 3-9 3 1-5 14-4z" fill="#0D7ABF"/>
<path transform="translate(1445,953)" d="m0 0h14l28 1-3 3-18 10-22 14-7-2-6-5 1-10 3-8 10 2z" fill="#EDA185"/>
<path transform="translate(1420,402)" d="m0 0 4 4h7l4-1 2 2h6l7-4 3 2h6v10l-3 12-2-2-3-9-4-2h-6l-6 4-6 8-2 4-12-3-19-6 3-2 10-5 9-9z" fill="#EEA181"/>
<path transform="translate(31,955)" d="m0 0h11l11 4 10 9 5 10 1 4v12l-4 11-8 9-12 6-5 1h-8l-10-3-9-6-6-8-3-8-1-11 2-9 6-10 7-6 9-4zm-1 4-10 4-6 5-5 8-2 7v10l3 9 9 10 8 4 3 1h12l10-4 8-7 4-8 1-3v-14l-4-9-7-8-8-4-3-1z" fill="#0D7ABF"/>
<path transform="translate(1645,478)" d="m0 0 17 1 17-1 5 4 1 5-5 6-11 4h-16l-7-4-4-5v-6z" fill="#EDA186"/>
<path transform="translate(25,921)" d="m0 0h22l12 3 14 7 10 8 8 9 8 14 4 14 1 15-2 13-5 14-4 6-4-1 6-12 4-16v-13l-3-14-5-12-10-13-10-8-12-6-10-3-7-1h-11l-15 3-14 7h-2l1-5 10-5z" fill="#0D79BF"/>
<path transform="translate(1629,478)" d="m0 0 2 4 4 9 9 8 12 5 9 2h16l16-4 1 2-11 4-5 1h-17l-5-1h-11l-25 3h-7l2-13 8-16z" fill="#1A354F"/>
<path transform="translate(1651,904)" d="m0 0 29 4 3 1 5 19-1 4-23-3-6-9-7-13z" fill="#1A334B"/>
<path transform="translate(1388,425)" d="m0 0h8l6 4 3 4 1 9-3 6-6 4-7 1-8-4-4-7 1-9 5-6z" fill="#FFCAA9"/>
<path transform="translate(1438,416)" d="m0 0 2 1-1 2h7l5 3h2v9l-4 10-7 7-9 1-5-6v-12l5-10z" fill="#EDA180"/>
<path transform="translate(1652,758)" d="m0 0h1v10l-10 9-16 11-4 2h-6l1-9 8-16 4-6 7 3h7z" fill="#FB9920"/>
<path transform="translate(1755,327)" d="m0 0 9 2 5 6 1 9-3 6-6 4h-9l-6-4-3-5v-8l3-5 5-4z" fill="#EDA288"/>
<path transform="translate(1387,982)" d="m0 0 39 9v2l-17 10-9-1-15-4-1-1v-9z" fill="#1A334B"/>
<path transform="translate(1609,754)" d="m0 0 8 3h9l3-1-2 6-6 12-13 9-7 3h-3v-8l5-13z" fill="#FA9921"/>
<path transform="translate(1753,629)" d="m0 0h4v14l-6 5-5 11-3 2-1-1 1-9 2-6-4 9-1 6-3-1 2-10 3-5-3 3-4 13-3-2 1-7 3-6-1-1-5 11h-1v-10l5-11 1-3h11z" fill="#FDC7A6"/>
<path transform="translate(1589,673)" d="m0 0 8 3h9l7-1-3 9-1 4-1 13h-15l-3-3-2-6v-16z" fill="#FEC8A8"/>
<path transform="translate(1349,809)" d="m0 0 22 2 8 1-3 5-10 7-15 5h-4l1-14z" fill="#FA9921"/>
<path transform="translate(1702,501)" d="m0 0 2 1-8 10-10 7-9 4h-8l-4-4 1-10 16-1 14-4z" fill="#FEC9A8"/>
<path transform="translate(1428,685)" d="m0 0 5 1 8 3 14 7 7 6 1 4-19-4-19-3 1-8z" fill="#EEA284"/>
<path transform="translate(1735,783)" d="m0 0h11l6 1v21l-15 1-2-16z" fill="#FCF9F7"/>
<path transform="translate(1402,454)" d="m0 0h8l8 5 4 5 2 5v5h-8l-8-4-5-6-1-2z" fill="#FEC9A8"/>
<path transform="translate(1681,334)" d="m0 0h6l7 6 1 2v10l-3 5-3 2h-4l-3-7-2-9z" fill="#EDA389"/>
<path transform="translate(1435,956)" d="m0 0 10 2v22l-3 1-7-3-4-4 1-10z" fill="#FCFBFA"/>
<path transform="translate(1687,462)" d="m0 0 6 1 4 4 1 5-3 6-3 2h-7l-5-5v-7l4-5z" fill="#EDA288"/>
<path transform="translate(1408,450)" d="m0 0 9 3 9 6 9 4-1 6-5 5-5 1-2-9-4-6-8-5-7-1 2-3z" fill="#1A354E"/>
<path transform="translate(1143,769)" d="m0 0h2l5 6 12 7 18 6 20 4 35 4-7-21 1-4 6 15 5 16-1 3-3-7-33-3-25-5-18-6-11-7-6-7z" fill="#1B3148"/>
<path transform="translate(1645,478)" d="m0 0 19 1-3 3-6 4-4 9-5-2-4-5v-6z" fill="#1A3650"/>
<path transform="translate(1806,430)" d="m0 0 1 4-6 25-4 25-3 28h-1v-17l2-23 4-21z" fill="#195681"/>
<path transform="translate(1614,674)" d="m0 0h2l-2 5-3 9v14l4 10 11 19 5 12v14h-2l-1-14-5-12-12-21-3-8v-14l4-11z" fill="#18547E"/>
<path transform="translate(1448,414)" d="m0 0 4 2 3 9-1 9-4 8-4 5-8 4-6-1-4-4-2-5v-7l2-1 1 10 4 5 9-1 7-8 3-8 1-9-3 1-4-3-7-1 1-3h8z" fill="#1B354F"/>
<path transform="translate(423,194)" d="m0 0 5 1-2 2-26 6-18 3h-10l3-1 1-2 30-5 9-2z" fill="#FE8C1D"/>
<path transform="translate(371,95)" d="m0 0 11 1 25 6 20 4-3 2-10-1-37-8-6-3z" fill="#FE8D21"/>
<path transform="translate(1317,598)" d="m0 0 4 2 19 14 18 12 16 9-3 1-21-11-17-12-13-11z" fill="#194A6F"/>
<path transform="translate(1630,463)" d="m0 0 6 1 3 3 1 6-3 5-2 2h-4l-1 2z" fill="#EDA288"/>
<path transform="translate(1767,562)" d="m0 0h20l19 3 17 5 12 6 1 2-4-1-15-6-15-4-15-2-20-1z" fill="#184D74"/>
<path transform="translate(1713,738)" d="m0 0h1l5 56 1 14-2 1-2-14-3-38z" fill="#F2E0D4"/>
<path transform="translate(1337,491)" d="m0 0 9 3 26 14 18 12-3 1-16-10-18-10-16-8z" fill="#1C547C"/>
<path transform="translate(1775,632)" d="m0 0 5 2 11 5 8 2h17l7-1-2 2-11 3h-10l-13-4-11-7z" fill="#18537D"/>
<path transform="translate(1715,389)" d="m0 0h14l-1 8-2 3h-3l-7-8z" fill="#F2E1D6"/>
<path transform="translate(1605,762)" d="m0 0h5l3 2-1 5-5 4h-7l4-10z" fill="#F3DDCF"/>
<path transform="translate(1626,767)" d="m0 0 6 1 1 5-5 4-7 1 3-9z" fill="#F3DBCC"/>
<path transform="translate(1806,430)" d="m0 0 1 4-6 25-2 11-3-2 3-17z" fill="#1A5077"/>
<path transform="translate(1777,714)" d="m0 0 9 3 8 2h20l-2 2-10 2-12-1-12-6z" fill="#17527B"/>
<path transform="translate(1441,413)" d="m0 0h6l1 3-10 1-6 7-4 9-12-4v-2l11 2 4-8 8-7z" fill="#323C43"/>
<path transform="translate(1228,771)" d="m0 0 3 4 9 27-1 3-3-7-2-2-1-6-5-15z" fill="#1A4769"/>
<path transform="translate(1759,365)" d="m0 0h2l-1 3-11 7-11 5-10 1 1-2 14-4 11-6z" fill="#19486C"/>
<path transform="translate(1705,318)" d="m0 0h2l-1 25 5 1v2h-7l-1-1 1-20z" fill="#1A547D"/>
<path transform="translate(1937,1)" d="m0 0 4 1 1 4-1 2h-6l-2 2-4-1 1-5 4 1z" fill="#107DC1"/>
<path transform="translate(1722,468)" d="m0 0h8v2l-9 2v2l4 1v4l-5 6h-2l2-4 3-5-5 1 1-7z" fill="#1A4F75"/>
<path transform="translate(1427,433)" d="m0 0h1l1 10 4 5 9-1 8-9 1 2-5 7-8 4-6-1-4-4-2-5v-7z" fill="#1B3148"/>
<path transform="translate(1650,543)" d="m0 0 5 1-2 2-6 1-8 5-9 9-1-3 10-10 7-4z" fill="#1B4C71"/>
<path transform="translate(1820,543)" d="m0 0h5l-3 2-16 8-6 4-2-1 9-8 9-4z" fill="#18527B"/>
<path transform="translate(1458,421)" d="m0 0 3 1h-2l-1 10-5 10h-2l1-5 5-15z" fill="#FAF5F2"/>
<path transform="translate(1639,442)" d="m0 0 5 1 2 5h-4l-5 1-4 2 1-5z" fill="#1A4769"/>
<path transform="translate(2039,19)" d="m0 0 5 3-1 5-1 1h-5l-2-3 1-4z" fill="#0B78BE"/>
<path transform="translate(1692,308)" d="m0 0h8l2 2v3h-10l-2 2-3-1 3-5z" fill="#1A4566"/>
<path transform="translate(2034)" d="m0 0h8v6l-5 2-4-3z" fill="#0976BD"/>
<path transform="translate(1731,348)" d="m0 0 4 1-7 3-4 1h-17l-1-3h18z" fill="#1B476A"/>
<path transform="translate(2014,9)" d="m0 0h5l2 5-2 3h-5l-2-2 1-5z" fill="#0A77BD"/>
<path transform="translate(1337,491)" d="m0 0 9 3 17 9v2l-6-2-20-10z" fill="#195078"/>
<path transform="translate(1724,308)" d="m0 0h8l4 4v3l-5-2h-9l1-4z" fill="#19405F"/>
<path transform="translate(1941,13)" d="m0 0 5 1-1 5h-9l-1-4z" fill="#0D7ABF"/>
<path transform="translate(1653,550)" d="m0 0h4v2l-10 4-11 10-1-2 6-7 9-6z" fill="#1B4C70"/>
<path transform="translate(2038,41)" d="m0 0 5 1 1 5-2 2-5-1-1-5z" fill="#0D7ABF"/>
<path transform="translate(2016,28)" d="m0 0 5 1 1 5-2 2h-5l-1-1v-5z" fill="#0A77BD"/>
<path transform="translate(1993,16)" d="m0 0h5l1 1v5l-2 2-5-1-1-5z" fill="#0A77BD"/>
<path transform="translate(1971,3)" d="m0 0 5 1 1 5-2 2-5-1-1-5z" fill="#0D7ABF"/>
<path transform="translate(1989)" d="m0 0h8v5l-3 2-4-1-1-1z" fill="#0977BD"/>
<path transform="translate(1656,578)" d="m0 0h16l7 1v2h-12l-11-2z" fill="#1B3148"/>
<path transform="translate(1654,555)" d="m0 0h3v2l-10 6-7 8h-2l2-4 5-6z" fill="#1A496C"/>
<path transform="translate(2038,62)" d="m0 0 4 1 1 4-2 3-5-1-1-5z" fill="#0C79BE"/>
<path transform="translate(2e3 33)" d="m0 0 5 1 1 4-3 3-4-1-1-5z" fill="#0C79BE"/>
<path transform="translate(1973,19)" d="m0 0h5l2 4-2 3h-5l-1-1v-5z" fill="#0B78BE"/>
<path transform="translate(1614,674)" d="m0 0h2l-2 5-3 9-2 10h-1v-10l4-11z" fill="#1B4464"/>
<path transform="translate(1646,464)" d="m0 0 6 2 6 5v2l-4-2-6-4h-3v5l-2 1v-6z" fill="#1B4F75"/>
<path transform="translate(1953,4)" d="m0 0 5 1v5l-2 2-4-1-1-5z" fill="#0C79BE"/>
<path transform="translate(2016,48)" d="m0 0 5 1 1 4-2 2h-5l-1-5z" fill="#0C79BE"/>
<path transform="translate(1459,422)" d="m0 0h2l-1 10-5 10h-3l5-10z" fill="#174A70"/>
<path transform="translate(2034,84)" d="m0 0 5 1 1 4-2 2-5-1v-5z" fill="#0D7ABF"/>
<path transform="translate(1976,34)" d="m0 0 4 1 1 5-1 1h-5l-1-5z" fill="#0D7ABF"/>
<path transform="translate(1944,23)" d="m0 0 6 2-1 5-5-1-2-1v-4z" fill="#0D7ABF"/>
<path transform="translate(1707,573)" d="m0 0h5l-1 2-12 4-4 4h-2l2-4 8-5z" fill="#1A4567"/>
<path transform="translate(2e3 51)" d="m0 0 5 1 1 4-2 2-5-1v-5z" fill="#0D79BF"/>
<path transform="translate(2016,67)" d="m0 0 4 2-1 5h-5l-1-5z" fill="#0C79BF"/>
<path transform="translate(1714,577)" d="m0 0 2 2-10 5-6 5 1-4 6-5z" fill="#1B5077"/>
<path transform="translate(1695,502)" d="m0 0 3 1-2 2-14 4-3-1h2v-2l12-3z" fill="#1B527A"/>
<path transform="translate(1956,18)" d="m0 0 5 1 1 3-3 3-4-1-1-3z" fill="#0A77BD"/>
<path transform="translate(1781,330)" d="m0 0 7 1v7l-5 4v-3l2-2 1-5h-6z" fill="#1B486B"/>
<path transform="translate(1777,714)" d="m0 0 9 3 8 2-2 1v2l-9-3-6-4z" fill="#1A547E"/>
<path transform="translate(1775,632)" d="m0 0 5 2 11 5v3l-6-2-10-7z" fill="#185784"/>
<path transform="translate(2e3 68)" d="m0 0 4 1 1 4-4 2-3-2 1-4z" fill="#0D7ABF"/>
<path transform="translate(1976,50)" d="m0 0h5l1 5-5 1-2-4z" fill="#0D7ABF"/>
<path transform="translate(1707,565)" d="m0 0 4 2-1 1-13 2v2h-2l2-4 4-2z" fill="#1B5178"/>
<path transform="translate(1950,33)" d="m0 0 3 1 1 6-4 1-2-6z" fill="#0E7BC0"/>
<path transform="translate(1614,713)" d="m0 0 4 4 6 11-2 1-8-13z" fill="#194E75"/>
<path transform="translate(1745,644)" d="m0 0 1 3-3 7-1 6h-2l1-9 3-6z" fill="#1A4F76"/>
<path transform="translate(2014,86)" d="m0 0 3 1 1 3-2 3-4-1-1-4z" fill="#0C79BE"/>
<path transform="translate(1740,644)" d="m0 0h2l-2 5-3 10-2 1 2-11z" fill="#1B5178"/>
<path transform="translate(1784,322)" d="m0 0h5l-1 2-6 3-3 7h-1v-6l4-5z" fill="#1A486B"/>
<path transform="translate(2030,105)" d="m0 0 5 1-1 5-5-1z" fill="#0D79BF"/>
<path transform="translate(1960,31)" d="m0 0 4 2-1 4-3 1-2-1v-5z" fill="#0C79BE"/>
<path transform="translate(1806,430)" d="m0 0 1 4-4 13-2 1 1-7z" fill="#195985"/>
<path transform="translate(1639,456)" d="m0 0h3l1 5-2 3h-2l-1-7z" fill="#1B4261"/>
<path transform="translate(1740,376)" d="m0 0 3 1-2 2-7 2h-6l1-2z" fill="#184E75"/>
<path transform="translate(1956,43)" d="m0 0 3 1-1 7h-4l-1-3z" fill="#0F7BC0"/>
<path transform="translate(1938,2)" d="m0 0 4 1-1 5h-5l1-5z" fill="#0A77BD"/>
<path transform="translate(1478,954)" d="m0 0h9l-3 3-6 2z" fill="#F8F2EE"/>
<path transform="translate(1741,648)" d="m0 0 1 3-2 9-3-1 2-10z" fill="#F9BD9E"/>
<path transform="translate(1726,326)" d="m0 0 2 1 1 4-2 4-3-2v-5z" fill="#1B4262"/>
<path transform="translate(2025,125)" d="m0 0h4l1 4-2 2-4-1z" fill="#0E7BC0"/>
<path transform="translate(2009,105)" d="m0 0 5 1-1 4-3 1-2-1z" fill="#0D7ABF"/>
<path transform="translate(1963,68)" d="m0 0 5 1 2 1-1 4-4-1v-2l-3-1z" fill="#0F7CC0"/>
<path transform="translate(1732,628)" d="m0 0 3 2-1 7-3 4z" fill="#1B3D5A"/>
<path transform="translate(1358,627)" d="m0 0 5 2 11 6-3 1-13-7z" fill="#196090"/>
<path transform="translate(1650,543)" d="m0 0 5 1-2 2-6 1-5 2v-3z" fill="#1A557E"/>
<path transform="translate(1662,456)" d="m0 0 3 1v6h-4v-6z" fill="#1B405E"/>
<path transform="translate(1706,350)" d="m0 0 14 1-1 2h-12z" fill="#1B557E"/>
<path transform="translate(1694,326)" d="m0 0 3 1v6h-4v-6z" fill="#1B3A55"/>
<path transform="translate(2041,145)" d="m0 0 4 1v4l-4 1-1-5z" fill="#0E7BC0"/>
<path transform="translate(415,104)" d="m0 0 12 2-3 2-8-1z" fill="#FE8D1D"/>
<path transform="translate(1993,85)" d="m0 0 5 1-1 4h-4l-1-4z" fill="#0E7BC0"/>
<path transform="translate(1962,44)" d="m0 0 4 1-1 5h-4l-1-4z" fill="#0D7ABF"/>
<path transform="translate(1441,430)" d="m0 0 3 1-1 5-3 2-1-5z" fill="#1B3148"/>
<path transform="translate(1979,64)" d="m0 0 3 2-1 4-5-1 1-4z" fill="#0D7ABF"/>
</svg>
