<?xml version="1.0" encoding="UTF-8"?>
<svg version="1.1" viewBox="0 0 2048 1024" width="1280" height="1280" xmlns="http://www.w3.org/2000/svg">
<path transform="translate(0)" d="m0 0h2048v1024h-2048z" fill="#FDFDFD"/>
<path transform="translate(2015)" d="m0 0h33v356l-13 16-14 19-14 20-12 19-13 22-15 28-14 30-12 30-12 35-10 37-8 40-5 39-2 26v22l2 22 4 24 7 26 8 22 9 20 6 11-1 2-12-14-11-12-12-14-12-16-9-13-12-19-12-21-11-22-13-31-12-36-7-27-6-31-3-23-1-13v-45l3-28 5-28 6-24 9-29 11-28 11-24 13-26 16-27 20-30 16-21 12-14 11-14 13-17 12-18 12-20 12-23 10-23 9-27 6-26 3-21 1-12v-28z" fill="#FD9C1F"/>
<path transform="translate(0)" d="m0 0h171l15 10 22 14 21 12 28 15 31 14 28 11 36 12 25 7 37 8 33 5 29 3 15 1h24l28-3 24-5 24-7 25-10 22-11h3l-11 9-12 11-8 7-17 14-18 13-17 11-17 10-23 12-23 11-29 11-31 10-29 7-22 4-23 3-11 1h-47l-29-3-27-5-32-8-30-10-29-12-25-12-23-12-20-12-27-18-19-14-14-12-17-14-11-8z" fill="#FD9C1F"/>
<path transform="translate(2047,393)" d="m0 0h1v631h-6l-5-26-8-26-10-23-10-20-10-17-15-24-11-17-12-20-8-15-10-25-6-19-5-23-3-23-1-23v-25l2-30 4-30 5-26 8-31 11-33 12-29 12-25 12-23 12-20 20-30 14-19z" fill="#1C87C7"/>
<path transform="translate(210)" d="m0 0h504l-4 3-23 13-19 12-25 16-22 13-23 11-25 9-25 6-27 4-20 1h-29l-31-2-30-4-30-6-30-8-30-10-29-12-29-14-24-13-23-14-6-4z" fill="#1C87C7"/>
<path transform="translate(1716)" d="m0 0h265l-7 21-9 17-10 14-12 13-13 11-14 9-16 8-18 6-16 3-22 1-20-2-19-5-15-6-15-8-12-9-10-9-10-10-10-14-9-16-6-15z" fill="#FEFEFE"/>
<path transform="translate(2015)" d="m0 0h33v230h-97l-2-2 1-6 14-21 12-20 12-23 10-23 9-27 6-26 3-21 1-12v-28z" fill="#FEB320"/>
<path transform="translate(1716)" d="m0 0h32l10 21 8 11 9 10 9 8 14 9 19 8 13 3 8 1h21l20-4 15-6 16-9 15-13 11-14 8-14 5-11h32l-7 21-9 17-10 14-12 13-13 11-14 9-16 8-18 6-16 3-22 1-20-2-19-5-15-6-15-8-12-9-10-9-10-10-10-14-9-16-6-15z" fill="#FEFEFE"/>
<path transform="translate(1775)" d="m0 0h147l-2 6-10 14-8 8-13 9-13 6-15 4h-25l-16-4-16-8-10-8-10-10-7-11-2-3z" fill="#FEFEFE"/>
<path transform="translate(1716)" d="m0 0 4 1 6 18 10 19 9 12 11 12 10 9 15 10 21 10 18 5 11 2 22 1 19-2 19-5 15-6 16-9 13-10 10-9 9-11 10-15 9-19 4-13 4 1-7 20-9 17-10 14-12 13-13 11-14 9-16 8-18 6-16 3-22 1-20-2-19-5-15-6-15-8-12-9-10-9-10-10-10-14-9-16-6-15z" fill="#1C87C7"/>
<path transform="translate(1811)" d="m0 0h75l-4 5-11 7-11 4-6 1h-12l-12-3-13-7z" fill="#FEFEFE"/>
<path transform="translate(1745)" d="m0 0h3l10 21 8 11 9 10 9 8 14 9 19 8 13 3 8 1h21l20-4 15-6 16-9 15-13 11-14 8-14 5-11 3 1-5 12-7 13-11 14-9 9-14 10-15 8-19 6-13 2h-22l-20-4-13-5-15-8-12-9-13-13-9-13-8-15z" fill="#1C87C7"/>
<path transform="translate(1775)" d="m0 0h3l7 12 11 12 12 9 13 6 15 4h25l15-4 16-8 13-11 8-10 6-10h3l-2 6-10 14-8 8-13 9-13 6-15 4h-25l-16-4-16-8-10-8-10-10-7-11-2-3z" fill="#1C87C7"/>
<path transform="translate(1807)" d="m0 0 5 1 8 7 13 6 9 2h12l13-3 11-6 8-7 4 1-7 7-11 7-11 4-6 1h-13l-13-3-11-6-10-9z" fill="#1C87C7"/>
<path transform="translate(0)" d="m0 0h3v66l-1 2h-2z" fill="#FFB421"/>
<path transform="translate(38,1013)" d="m0 0 5 1 1 4-5 3-3-2 1-5z" fill="#1C87C7"/>
<path transform="translate(18,998)" d="m0 0 4 2 1 3-2 3-5-1-1-5z" fill="#1C87C7"/>
<path transform="translate(64 1e3)" d="m0 0h5l1 5-2 2-4-1-1-5z" fill="#1C87C7"/>
<path transform="translate(45,986)" d="m0 0 5 1v5l-5 1-2-4z" fill="#1C87C7"/>
<path transform="translate(25,970)" d="m0 0h5l1 5-5 2-2-2z" fill="#1C87C7"/>
<path transform="translate(36,942)" d="m0 0h5l1 4-2 2-5-1z" fill="#1C87C7"/>
<path transform="translate(108,1015)" d="m0 0 4 1 1 4-4 2-3-3z" fill="#1C87C7"/>
<path transform="translate(73,978)" d="m0 0 4 2-1 5-5-1 1-5z" fill="#1C87C7"/>
<path transform="translate(55,960)" d="m0 0 4 1v5l-4 1-2-2v-4z" fill="#1C87C7"/>
<path transform="translate(90,997)" d="m0 0 5 1-1 5-5-1z" fill="#1C87C7"/>
<path transform="translate(84,1019)" d="m0 0 5 1 1 4h-7z" fill="#1C87C7"/>
<path transform="translate(83,955)" d="m0 0 3 1v5l-3 1-3-2 1-4z" fill="#1C87C7"/>
<path transform="translate(50,915)" d="m0 0 4 1 1 3-1 2h-5l-1-3z" fill="#1C87C7"/>
<path transform="translate(129,1016)" d="m0 0 5 1-1 4h-4l-1-4z" fill="#1C87C7"/>
<path transform="translate(113,996)" d="m0 0 5 1-1 4h-4l-1-4z" fill="#1C87C7"/>
<path transform="translate(97,976)" d="m0 0 5 1-1 4h-4l-1-4z" fill="#1C87C7"/>
<path transform="translate(67,935)" d="m0 0 3 1-1 5h-4l-1-3z" fill="#1C87C7"/>
<path transform="translate(65,891)" d="m0 0 4 1-1 4h-4v-4z" fill="#1C87C7"/>
</svg>
